<?xml version="1.0" encoding="UTF-8"?>
<svg id="Layer_1" data-name="Layer 1" xmlns="http://www.w3.org/2000/svg" viewBox="0 0 32.76 50">
  <defs>
    <style>
      .cls-1 {
        fill: #2a4f02;
      }

      .cls-1, .cls-2, .cls-3, .cls-4, .cls-5, .cls-6 {
        stroke-width: 0px;
      }

      .cls-3 {
        fill: #fff;
      }

      .cls-4 {
        fill: #367c09;
      }

      .cls-5 {
        fill: #101011;
      }

      .cls-6 {
        fill: #f9f9f9;
      }
    </style>
  </defs>
  <g>
    <path class="cls-2" d="m14.89,48.17h-.84c-.32,0-.58-.18-.58-.41l-1.37-9.51c0-.23.26-.41.58-.41h2.2c.32,0,.58.18.58.41v9.51c0,.23-.26.41-.58.41Z"/>
    <path class="cls-2" d="m17.94,48.17h.84c.32,0,.58-.18.58-.41l1.37-9.51c0-.23-.26-.41-.58-.41h-2.2c-.32,0-.58.18-.58.41v9.51c0,.23.26.41.58.41Z"/>
    <g>
      <path class="cls-2" d="m14.27,39.67l-1.04-.14c-.4-.05-.7-.28-.67-.5l-.46-9.65c.03-.22.38-.36.77-.31l2.74.36c.4.05.7.28.67.5l-1.24,9.43c-.03.22-.38.36-.77.31Z"/>
      <path class="cls-2" d="m18.55,39.67l1.04-.14c.4-.05.7-.28.67-.5l.46-9.65c-.03-.22-.38-.36-.77-.31l-2.74.36c-.4.05-.7.28-.67.5l1.24,9.43c.03.22.38.36.77.31Z"/>
      <rect class="cls-2" x="11.99" y="26.94" width="9.06" height="4.81" rx="2.22" ry="2.22"/>
    </g>
  </g>
  <path class="cls-2" d="m11.63,47.87c0-1.19.96-2.15,2.15-2.15s2.15.96,2.15,2.15-4.3,1.19-4.3,0Z"/>
  <path class="cls-2" d="m17.21,47.87c0-1.19.96-2.15,2.15-2.15s2.15.96,2.15,2.15-4.3,1.19-4.3,0Z"/>
  <rect class="cls-1" x="15.13" y="12.55" width="2.46" height="2.46" rx="1.14" ry="1.14"/>
  <path class="cls-4" d="m17.58,13.39h-2.44c-.72,0-1.3-.59-1.3-1.3l-1.52-5.38s-.9-3.67,4.05-3.67c5.38,0,4.05,3.67,4.05,3.67l-1.52,5.38c0,.72-.59,1.3-1.3,1.3Z"/>
  <path class="cls-1" d="m15.54,10.06s.66.13.89.13.89-.13.89-.13c.11,0,.21.45.21.45,0,.11-.09.21-.21.21h-1.78c-.11,0-.21-.09-.21-.21,0,0,.09-.45.21-.45Z"/>
  <g>
    <rect class="cls-1" x="15.57" y="8.77" width="1.73" height=".83" rx=".38" ry=".38"/>
    <rect class="cls-1" x="15.05" y="7.8" width="2.77" height=".83" rx=".38" ry=".38" transform="translate(8.22 24.64) rotate(-90)"/>
  </g>
  <g>
    <circle class="cls-6" cx="14.48" cy="7.57" r=".7"/>
    <circle class="cls-2" cx="14.48" cy="7.57" r=".29"/>
  </g>
  <g>
    <circle class="cls-6" cx="18.34" cy="7.57" r=".7"/>
    <circle class="cls-2" cx="18.34" cy="7.57" r=".29"/>
  </g>
  <g>
    <path class="cls-2" d="m20.4,7.3s-.64-2.65-2.67-3.05c-.38-.08-.71,1.24-1.37,1.25-.72.01-1.24-1.29-1.73-1.15-1.72.49-2.17,2.95-2.17,2.95-.35,0-.64-.29-.64-.64v-2.03c0-.35.29-.64.64-.64,0,0,.89-2.12,3.97-2.12s3.97,2.12,3.97,2.12c.35,0,.64.29.64.64v2.03c0,.35-.29.64-.64.64Z"/>
    <path class="cls-2" d="m13.35,5.98v3.44c0,.15-.13.28-.28.28h-.29c-.15,0-.28-.13-.28-.28,0,0-.72-.38-.72-1.72s.72-1.72.72-1.72c0-.15.13-.28.28-.28h.29c.15,0,.28.13.28.28Z"/>
    <path class="cls-2" d="m19.36,9.42v-3.44c0-.15.13-.28.28-.28h.29c.15,0,.28.13.28.28,0,0,.72.38.72,1.72s-.72,1.72-.72,1.72c0,.15-.13.28-.28.28h-.29c-.15,0-.28-.13-.28-.28Z"/>
  </g>
  <path class="cls-4" d="m12.6,8.94c-.54,0-.97-.43-.97-.97s.43-.97.97-.97.54,1.94,0,1.94Z"/>
  <path class="cls-4" d="m20.27,7c.54,0,.97.43.97.97s-.43.97-.97.97-.54-1.94,0-1.94Z"/>
  <g>
    <rect class="cls-5" x="8.26" y="14.62" width="3.1" height="9.57" rx="1.43" ry="1.43"/>
    <rect class="cls-5" x="8.94" y="23.22" width="2.94" height="7.98" rx="1.36" ry="1.36" transform="translate(-3.46 1.59) rotate(-7.49)"/>
    <path class="cls-4" d="m10.63,30.77l.88-.26c.26-.08.54.11.63.41l1.22,2.1s.13.51-.13.59l-2.36.7c-.26.08-.43-.42-.43-.42l-.12-2.42c-.09-.3.05-.61.31-.69Z"/>
  </g>
  <g>
    <rect class="cls-5" x="21.41" y="14.62" width="3.1" height="9.57" rx="1.43" ry="1.43" transform="translate(45.91 38.82) rotate(-180)"/>
    <rect class="cls-5" x="20.88" y="23.22" width="2.94" height="7.98" rx="1.36" ry="1.36" transform="translate(40.97 57.09) rotate(-172.51)"/>
    <path class="cls-4" d="m22.13,30.77l-.88-.26c-.26-.08-.54.11-.63.41l-1.22,2.1s-.13.51.13.59l2.36.7c.26.08.43-.42.43-.42l.12-2.42c.09-.3-.05-.61-.31-.69Z"/>
  </g>
  <path class="cls-5" d="m20.26,27.21h-7.61c-.32,0-.58-.28-.58-.63l-1.37-11.32c0-.35.26-.63.58-.63h10.34c.32,0,.58.28.58.63l-1.37,11.32c0,.35-.26.63-.58.63Z"/>
  <path class="cls-3" d="m16.45,19.71c-.6,0-1.11-4.83-1.11-4.83,0-.14.05-.26.11-.26h2.01c.06,0,.11.12.11.26,0,0-.52,4.83-1.11,4.83Z"/>
</svg>