<?xml version="1.0" encoding="UTF-8"?>
<svg id="Layer_1" data-name="Layer 1" xmlns="http://www.w3.org/2000/svg" xmlns:xlink="http://www.w3.org/1999/xlink" viewBox="0 0 32.76 50">
  <defs>
    <style>
      .cls-1 {
        fill: #59361a;
      }

      .cls-1, .cls-2, .cls-3, .cls-4, .cls-5, .cls-6, .cls-7, .cls-8, .cls-9, .cls-10, .cls-11, .cls-12, .cls-13 {
        stroke-width: 0px;
      }

      .cls-2 {
        fill: #7f5937;
      }

      .cls-3 {
        fill: #e6e6e6;
      }

      .cls-4 {
        fill: #a67c52;
      }

      .cls-6 {
        fill: #1a1a1a;
      }

      .cls-7 {
        fill: none;
      }

      .cls-8 {
        fill: #fff;
      }

      .cls-9 {
        fill: #ffe4ca;
      }

      .cls-14 {
        clip-path: url(#clippath);
      }

      .cls-10 {
        fill: #8c633e;
      }

      .cls-11 {
        fill: #42210b;
      }

      .cls-12 {
        fill: #f9f9f9;
      }

      .cls-13 {
        fill: #7a5334;
      }
    </style>
    <clipPath id="clippath">
      <path class="cls-7" d="m17.4,12.86s-.92-.17-1.22-.17-1.22.17-1.22.17c-.16,0-.29-.62-.29-.62,0-.16.13-.29.29-.29h2.45c.16,0,.29.13.29.29,0,0-.13.62-.29.62Z"/>
    </clipPath>
  </defs>
  <rect class="cls-2" x="15.02" y="14.63" width="2.19" height="2.19" rx=".97" ry=".97"/>
  <path class="cls-4" d="m17.2,15.37h-2.17c-.64,0-1.16-.52-1.16-1.16l-.71-4.78s-1.44-2.56,2.96-2.56c4.78,0,3.07,2.56,3.07,2.56l-.83,4.78c0,.64-.52,1.16-1.16,1.16Z"/>
  <rect class="cls-2" x="15.33" y="10.33" width="1.69" height=".51" rx=".22" ry=".22"/>
  <g>
    <circle class="cls-12" cx="14.44" cy="9.84" r=".62"/>
    <circle class="cls-5" cx="14.44" cy="9.84" r=".26"/>
  </g>
  <g>
    <circle class="cls-12" cx="17.87" cy="9.84" r=".62"/>
    <circle class="cls-5" cx="17.87" cy="9.84" r=".26"/>
  </g>
  <g>
    <path class="cls-9" d="m10.72,8.67l2.96,1.72c.13.08.16.26.07.4l-.17.27c-.09.14-.27.2-.41.12,0,0-.04.03-1.12-.73-.89-.62-1.83-.99-1.83-.99-.13-.08-.16-.26-.07-.4l.17-.27c.09-.14.27-.2.41-.12Z"/>
    <path class="cls-10" d="m13.4,11.2s-.58-1.12-.85-1.31c-.49-.34-2.39-.64-2.39-.64-.14-.08-.19-.25-.11-.37l.15-.23c.08-.12.25-.16.39-.08,0,0,.72-.38,1.92.31s1.17,1.48,1.17,1.48c.14.08.19.25.11.37l-.15.23c-.08.12-.11.32-.24.24Z"/>
  </g>
  <g>
    <path class="cls-9" d="m21.7,8.67l-2.96,1.72c-.13.08-.16.26-.07.4l.17.27c.09.14.27.2.41.12,0,0,.04.03,1.12-.73.89-.62,1.83-.99,1.83-.99.13-.08.16-.26.07-.4l-.17-.27c-.09-.14-.27-.2-.41-.12Z"/>
    <path class="cls-10" d="m19.02,11.2s.58-1.12.85-1.31c.49-.34,2.39-.64,2.39-.64.14-.08.19-.25.11-.37l-.15-.23c-.08-.12-.25-.16-.39-.08,0,0-.72-.38-1.92.31s-1.17,1.48-1.17,1.48c-.14.08-.19.25-.11.37l.15.23c.08.12.11.32.24.24Z"/>
  </g>
  <rect class="cls-2" x="13.05" y="26.52" width="6.25" height="5.68" rx="2.51" ry="2.51"/>
  <path class="cls-2" d="m19.15,47.51l.71.21c.27.08.54-.01.6-.2l3.56-7.76c.06-.19-.12-.42-.39-.5l-1.88-.56c-.27-.08-.54.01-.6.2l-2.4,8.1c-.06.19.12.42.39.5Z"/>
  <path class="cls-2" d="m22.86,40l.81-.56c.31-.21.45-.55.32-.74l-4.3-9.02c-.13-.19-.49-.17-.8.04l-2.13,1.48c-.31.21-.45.55-.32.74l5.62,8.1c.13.19.49.17.8-.04Z"/>
  <path class="cls-1" d="m23.05,47.8c0-1.06-.14-1.58-1.37-1.58s-3.08.52-3.08,1.58c0,.24.24.43.6.56.16.06.32-.26.52-.22.14.03.32.41.47.42.1,0,.13-.28.23-.28s.29.31.4.31c.12,0,.16-.27.27-.27s.31.25.43.24.09-.27.19-.29c.12-.02.38.2.49.17s.08-.36.18-.4c.16-.06.41.17.5.08.11-.09.17-.2.17-.32Z"/>
  <path class="cls-4" d="m18.2,26.69h-4.02c-.2,0-.37-.23-.37-.51l.16-3.14-.84-1.66-.63-4.4c0-.28.17-.51.37-.51h6.65c.2,0,.37.23.37.51l-.63,4.4-.84,1.66.16,3.14c0,.28-.17.51-.37.51Z"/>
  <rect class="cls-6" x="14.95" y="10.68" width="2.46" height=".74" rx=".33" ry=".33"/>
  <path class="cls-10" d="m13.16,9.06s-1.44-2.56,2.96-2.56c4.78,0,3.07,2.56,3.07,2.56,0,0-1.06-1.09-2.99-1.18-2.12-.1-3.04,1.18-3.04,1.18Z"/>
  <rect class="cls-13" x="15.04" y="5.58" width="2.33" height="3.03" rx="1.03" ry="1.03"/>
  <g>
    <rect class="cls-4" x="7.35" y="19.68" width="8.51" height="2.06" rx=".91" ry=".91" transform="translate(-10.61 29.07) rotate(-81.38)"/>
    <g>
      <rect class="cls-4" x="5.93" y="26.1" width="7.09" height="1.71" rx=".76" ry=".76" transform="translate(-18.07 19.37) rotate(-55.23)"/>
      <path class="cls-1" d="m7.27,29.58l.53.32c.16.09.19.32.09.5l-.48,1.55s-.19.3-.35.2l-1.42-.85c-.16-.09.01-.4.01-.4l1.14-1.16c.11-.18.32-.25.48-.16Z"/>
    </g>
  </g>
  <g>
    <rect class="cls-4" x="20.17" y="16.33" width="2.06" height="8.51" rx=".91" ry=".91" transform="translate(-5.5 7.93) rotate(-18.8)"/>
    <g>
      <rect class="cls-4" x="24.2" y="22.26" width="1.71" height="7.09" rx=".76" ry=".76" transform="translate(-8.97 37.47) rotate(-64.77)"/>
      <path class="cls-1" d="m28.29,26.98l-.3.54c-.09.16-.01.37.17.47l1.19,1.11s.32.16.41,0l.81-1.44c.09-.16-.21-.34-.21-.34l-1.57-.43c-.18-.1-.41-.06-.5.1Z"/>
    </g>
  </g>
  <g class="cls-14">
    <g>
      <path class="cls-11" d="m17.76,12.99s-1.18-.22-1.58-.22-1.58.22-1.58.22c-.2,0-.37-.8-.37-.8,0-.2.17-.37.37-.37h3.16c.2,0,.37.17.37.37,0,0-.17.8-.37.8Z"/>
      <g>
        <path class="cls-8" d="m15.26,11.68s-.07.94-.13.94c-.08,0-.13-.94-.13-.94,0-.02.02-.04.03-.04h.19s.03.02.03.04Z"/>
        <path class="cls-8" d="m15.61,11.68s-.07.94-.13.94c-.08,0-.13-.94-.13-.94,0-.02.02-.04.03-.04h.19s.03.02.03.04Z"/>
        <path class="cls-8" d="m15.97,11.68s-.07.94-.13.94c-.08,0-.13-.94-.13-.94,0-.02.02-.04.03-.04h.19s.03.02.03.04Z"/>
        <path class="cls-8" d="m16.33,11.68s-.07.94-.13.94c-.08,0-.13-.94-.13-.94,0-.02.02-.04.03-.04h.19s.03.02.03.04Z"/>
        <path class="cls-8" d="m16.69,11.68s-.07.94-.13.94c-.08,0-.13-.94-.13-.94,0-.02.02-.04.03-.04h.19s.03.02.03.04Z"/>
        <path class="cls-8" d="m17.05,11.68s-.07.94-.13.94c-.08,0-.13-.94-.13-.94,0-.02.02-.04.03-.04h.19s.03.02.03.04Z"/>
        <path class="cls-8" d="m17.41,11.68s-.07.94-.13.94c-.08,0-.13-.94-.13-.94,0-.02.02-.04.03-.04h.19s.03.02.03.04Z"/>
      </g>
      <g>
        <path class="cls-3" d="m17.41,13.26s.08-1,.16-1c.1,0,.16,1,.16,1,0,.02-.02.04-.04.04h-.23s-.04-.02-.04-.04Z"/>
        <path class="cls-3" d="m16.99,13.26s.08-1,.16-1c.1,0,.16,1,.16,1,0,.02-.02.04-.04.04h-.23s-.04-.02-.04-.04Z"/>
        <path class="cls-3" d="m16.55,13.26s.08-1,.16-1c.1,0,.16,1,.16,1,0,.02-.02.04-.04.04h-.23s-.04-.02-.04-.04Z"/>
        <path class="cls-3" d="m16.1,13.26s.08-1,.16-1c.1,0,.16,1,.16,1,0,.02-.02.04-.04.04h-.23s-.04-.02-.04-.04Z"/>
        <path class="cls-3" d="m15.66,13.26s.08-1,.16-1c.1,0,.16,1,.16,1,0,.02-.02.04-.04.04h-.23s-.04-.02-.04-.04Z"/>
        <path class="cls-3" d="m15.22,13.26s.08-1,.16-1c.1,0,.16,1,.16,1,0,.02-.02.04-.04.04h-.23s-.04-.02-.04-.04Z"/>
        <path class="cls-3" d="m14.78,13.26s.08-1,.16-1c.1,0,.16,1,.16,1,0,.02-.02.04-.04.04h-.23s-.04-.02-.04-.04Z"/>
      </g>
    </g>
  </g>
  <g>
    <path class="cls-2" d="m13.31,47.51l-.71.21c-.27.08-.54-.01-.6-.2l-3.56-7.76c-.06-.19.12-.42.39-.5l1.88-.56c.27-.08.54.01.6.2l2.4,8.1c.06.19-.12.42-.39.5Z"/>
    <path class="cls-2" d="m9.6,40l-.81-.56c-.31-.21-.45-.55-.32-.74l4.3-9.02c.13-.19.49-.17.8.04l2.13,1.48c.31.21.45.55.32.74l-5.62,8.1c-.13.19-.49.17-.8-.04Z"/>
    <path class="cls-1" d="m9.41,47.8c0-1.06.14-1.58,1.37-1.58s3.08.52,3.08,1.58c0,.24-.24.43-.6.56-.16.06-.32-.26-.52-.22-.14.03-.32.41-.47.42-.1,0-.13-.28-.23-.28s-.29.31-.4.31c-.12,0-.16-.27-.27-.27s-.31.25-.43.24-.09-.27-.19-.29c-.12-.02-.38.2-.49.17s-.08-.36-.18-.4c-.16-.06-.41.17-.5.08-.11-.09-.17-.2-.17-.32Z"/>
  </g>
</svg>