<?xml version="1.0" encoding="UTF-8"?>
<svg id="Layer_1" data-name="Layer 1" xmlns="http://www.w3.org/2000/svg" viewBox="0 0 32.76 50">
  <defs>
    <style>
      .cls-1 {
        fill: #c1272d;
      }

      .cls-1, .cls-2, .cls-3, .cls-4, .cls-5, .cls-6, .cls-7, .cls-8, .cls-9 {
        stroke-width: 0px;
      }

      .cls-3 {
        fill: #1a1a1a;
      }

      .cls-4 {
        fill: #1b1464;
      }

      .cls-5 {
        fill: #fff;
      }

      .cls-6 {
        fill: #e5d7f9;
      }

      .cls-7 {
        fill: #f9f9f9;
      }

      .cls-8 {
        fill: #c5b8d8;
      }

      .cls-9 {
        fill: #a02730;
      }
    </style>
  </defs>
  <rect class="cls-8" x="15" y="18.14" width="2.19" height="2.19" rx=".97" ry=".97"/>
  <path class="cls-6" d="m17.18,18.89h-2.17c-.64,0-1.16-.52-1.16-1.16l-1.35-4.78s-.8-3.26,3.6-3.26c4.78,0,3.6,3.26,3.6,3.26l-1.35,4.78c0,.64-.52,1.16-1.16,1.16Z"/>
  <path class="cls-8" d="m17.74,16.51s-1.18-.22-1.58-.22-1.58.22-1.58.22c-.2,0-.37-.8-.37-.8,0-.2.17-.37.37-.37h3.16c.2,0,.37.17.37.37,0,0-.17.8-.37.8Z"/>
  <g>
    <rect class="cls-8" x="14.92" y="14.2" width="2.46" height=".74" rx=".33" ry=".33"/>
    <rect class="cls-8" x="14.92" y="13.33" width="2.46" height=".74" rx=".33" ry=".33" transform="translate(2.45 29.86) rotate(-90)"/>
  </g>
  <path class="cls-5" d="m15.29,15.44s-.19,2.36-.37,2.36c-.24,0-.37-2.36-.37-2.36,0-.06.05-.1.1-.1h.54c.06,0,.1.05.1.1Z"/>
  <path class="cls-5" d="m17.85,15.44s-.19,2.36-.37,2.36c-.24,0-.37-2.36-.37-2.36,0-.06.05-.1.1-.1h.54c.06,0,.1.05.1.1Z"/>
  <g>
    <circle class="cls-7" cx="14.42" cy="13.72" r=".62"/>
    <circle class="cls-2" cx="14.42" cy="13.72" r=".26"/>
  </g>
  <g>
    <circle class="cls-7" cx="17.85" cy="13.72" r=".62"/>
    <circle class="cls-2" cx="17.85" cy="13.72" r=".26"/>
  </g>
  <g>
    <path class="cls-3" d="m19.69,13.47s-.57-2.35-2.37-2.71c-.34-.07-.63,1.11-1.22,1.12-.64,0-1.1-1.14-1.54-1.02-1.53.43-1.93,2.62-1.93,2.62-.31,0-.57-.26-.57-.57v-1.8c0-.31.26-.57.57-.57,0,0,.79-1.88,3.53-1.88s3.53,1.88,3.53,1.88c.31,0,.57.26.57.57v1.8c0,.31-.26.57-.57.57Z"/>
    <path class="cls-3" d="m13.41,12.31v3.06c0,.14-.11.25-.25.25h-.26c-.14,0-.25-.11-.25-.25,0,0-.64-.34-.64-1.53s.64-1.53.64-1.53c0-.14.11-.25.25-.25h.26c.14,0,.25.11.25.25Z"/>
    <path class="cls-3" d="m18.76,15.36v-3.06c0-.14.11-.25.25-.25h.26c.14,0,.25.11.25.25,0,0,.64.34.64,1.53s-.64,1.53-.64,1.53c0,.14-.11.25-.25.25h-.26c-.14,0-.25-.11-.25-.25Z"/>
  </g>
  <path class="cls-6" d="m12.75,14.93c-.48,0-.86-.39-.86-.86s.39-.86.86-.86.48,1.73,0,1.73Z"/>
  <path class="cls-6" d="m19.57,13.21c.48,0,.86.39.86.86s-.39.86-.86.86-.48-1.73,0-1.73Z"/>
  <g>
    <path class="cls-3" d="m15.58,47.93h-.75c-.28,0-.51-.16-.51-.36l-1.21-8.45c0-.2.23-.36.51-.36h1.96c.28,0,.51.16.51.36v8.45c0,.2-.23.36-.51.36Z"/>
    <path class="cls-3" d="m16.88,47.93h.75c.28,0,.51-.16.51-.36l1.21-8.45c0-.2-.23-.36-.51-.36h-1.96c-.28,0-.51.16-.51.36v8.45c0,.2.23.36.51.36Z"/>
    <g>
      <path class="cls-3" d="m15.58,39.39h-.75c-.28,0-.51-.16-.51-.36l-1.21-8.45c0-.2.23-.36.51-.36h1.96c.28,0,.51.16.51.36v8.45c0,.2-.23.36-.51.36Z"/>
      <path class="cls-3" d="m16.88,39.39h.75c.28,0,.51-.16.51-.36l1.21-8.45c0-.2-.23-.36-.51-.36h-1.96c-.28,0-.51.16-.51.36v8.45c0,.2.23.36.51.36Z"/>
      <rect class="cls-3" x="13.1" y="30.11" width="6.25" height="4.28" rx="1.89" ry="1.89"/>
    </g>
  </g>
  <g>
    <rect class="cls-5" x="9.7" y="19.98" width="2.06" height="8.51" rx=".91" ry=".91"/>
    <rect class="cls-5" x="10.78" y="27.45" width="1.71" height="7.09" rx=".76" ry=".76" transform="translate(-8.32 4.58) rotate(-16.49)"/>
    <path class="cls-6" d="m12.31,34.36l.58-.22c.17-.06.37.05.44.24l.91,1.34s.11.34-.06.4l-1.55.58c-.17.06-.31-.26-.31-.26l-.19-1.61c-.07-.2,0-.41.17-.47Z"/>
  </g>
  <g>
    <rect class="cls-5" x="20.6" y="19.98" width="2.06" height="8.51" rx=".91" ry=".91"/>
    <rect class="cls-5" x="20.12" y="27.45" width="1.71" height="7.09" rx=".76" ry=".76" transform="translate(10.48 -4.93) rotate(17.8)"/>
    <path class="cls-6" d="m19.57,33.99l.56.26c.16.08.23.29.14.49l-.31,1.6s-.16.32-.33.24l-1.5-.69c-.16-.08-.03-.4-.03-.4l1.01-1.28c.09-.19.29-.29.46-.21Z"/>
  </g>
  <path class="cls-2" d="m12.51,47.97c0-1.06.86-1.91,1.91-1.91s1.91.86,1.91,1.91-3.82,1.06-3.82,0Z"/>
  <path class="cls-2" d="m16.2,47.97c0-1.06.86-1.91,1.91-1.91s1.91.86,1.91,1.91-3.82,1.06-3.82,0Z"/>
  <path class="cls-4" d="m18.95,30.21h-5.55c-.28,0-.51-.23-.51-.51l-1.82-9.19c0-.28.23-.51.51-.51h9.19c.28,0,.51.23.51.51l-1.82,9.19c0,.28-.23.51-.51.51Z"/>
  <path class="cls-5" d="m16.17,24.51c-1.21,0-2.26-4.3-2.26-4.3,0-.13.1-.23.23-.23h4.07c.13,0,.23.1.23.23,0,0-1.05,4.3-2.26,4.3Z"/>
  <path class="cls-5" d="m16.17,25.97c-1.21,0-2.26-4.3-2.26-4.3,0-.13.1-.23.23-.23h4.07c.13,0,.23.1.23.23,0,0-1.05,4.3-2.26,4.3Z"/>
  <path class="cls-5" d="m16.17,27.92c-1.21,0-2.26-4.3-2.26-4.3,0-.13.1-.23.23-.23h4.07c.13,0,.23.1.23.23,0,0-1.05,4.3-2.26,4.3Z"/>
  <path class="cls-9" d="m15.47,20.63l-.95.61c-.28,0-.51-.23-.51-.51v-.48c0-.28.23-.51.51-.51l.95.61c.28,0,.51-.38.51-.09v.48c0,.28-.23-.09-.51-.09Z"/>
  <path class="cls-9" d="m16.71,20.33l.95-.61c.28,0,.51.23.51.51v.48c0,.28-.23.51-.51.51l-.95-.61c-.28,0-.51.38-.51.09v-.48c0-.28.23.09.51.09Z"/>
  <ellipse class="cls-1" cx="16.09" cy="20.44" rx=".45" ry=".54"/>
</svg>