<?xml version="1.0" encoding="UTF-8"?>
<svg id="Layer_1" data-name="Layer 1" xmlns="http://www.w3.org/2000/svg" viewBox="0 0 32.76 50">
  <defs>
    <style>
      .cls-1, .cls-2, .cls-3, .cls-4, .cls-5, .cls-6, .cls-7, .cls-8 {
        stroke-width: 0px;
      }

      .cls-2 {
        fill: #1a1a1a;
      }

      .cls-3 {
        fill: #d0f7f6;
      }

      .cls-4 {
        fill: #caeaff;
      }

      .cls-5 {
        fill: #6999c4;
      }

      .cls-6 {
        fill: #7ccbf7;
      }

      .cls-7 {
        fill: #08422b;
      }

      .cls-8 {
        fill: #f9f9f9;
      }
    </style>
  </defs>
  <rect class="cls-6" x="15.38" y="20.75" width="2" height="2" rx=".89" ry=".89"/>
  <path class="cls-4" d="m16.77,21.43h-.77c-.58,0-1.06-.48-1.06-1.06l-1.85-4.37s.06-2.43,3.29-2.43c3.41,0,3.29,2.43,3.29,2.43l-1.85,4.37c0,.58-.48,1.06-1.06,1.06Z"/>
  <path class="cls-6" d="m17.57,19.6s-.76.1-1,.17-.91.44-.91.44c-.12.04-.38-.41-.38-.41-.04-.12.03-.26.15-.29l1.91-.62c.12-.04.26.03.29.15,0,0,.06.52-.07.55Z"/>
  <g>
    <rect class="cls-6" x="15.74" y="17.85" width="1.41" height=".42" rx=".19" ry=".19" transform="translate(1.97 -1.61) rotate(5.96)"/>
    <rect class="cls-6" x="15.74" y="17.36" width="1.41" height=".42" rx=".19" ry=".19" transform="translate(-1.13 34.02) rotate(-90)"/>
  </g>
  <g>
    <circle class="cls-8" cx="14.97" cy="16.78" r=".72"/>
    <circle class="cls-1" cx="14.97" cy="16.78" r=".3"/>
  </g>
  <g>
    <circle class="cls-8" cx="17.87" cy="16.8" r=".57"/>
    <circle class="cls-1" cx="17.87" cy="16.8" r=".24"/>
  </g>
  <g>
    <path class="cls-2" d="m19.28,16.48s-.46-2.15-1.9-2.48c-.27-.06-.5,1.01-.97,1.02-.51,0-.89-1.05-1.23-.93-1.23.4-1.55,2.4-1.55,2.4-.25,0-.46-.23-.46-.52v-1.65c0-.29.21-.52.46-.52,0,0,.63-1.72,2.83-1.72s2.83,1.72,2.83,1.72c.25,0,.46.23.46.52v1.65c0,.29-.21.52-.46.52Z"/>
    <path class="cls-2" d="m13.94,15.41v2.8c0,.12-.1.23-.23.23h-.23c-.12,0-.23-.1-.23-.23,0,0-.59-.31-.59-1.4s.59-1.4.59-1.4c0-.12.1-.23.23-.23h.23c.12,0,.23.1.23.23Z"/>
    <path class="cls-2" d="m18.82,18.21v-2.8c0-.12.1-.23.23-.23h.23c.12,0,.23.1.23.23,0,0,.59.31.59,1.4s-.59,1.4-.59,1.4c0,.12-.1.23-.23.23h-.23c-.12,0-.23-.1-.23-.23Z"/>
  </g>
  <path class="cls-4" d="m13.39,17.6c-.44,0-.79-.35-.79-.79s.35-.79.79-.79.44,1.58,0,1.58Z"/>
  <path class="cls-4" d="m19.56,16.43c.44,0,.79.35.79.79s-.35.79-.79.79-.44-1.58,0-1.58Z"/>
  <g>
    <g>
      <path class="cls-5" d="m20.64,47l.62-.14c.23-.05.39-.24.36-.4l-.62-7.24c-.04-.17-.26-.26-.5-.2l-1.62.38c-.23.05-.39.24-.36.4l1.63,7.01c.04.17.26.26.5.2Z"/>
      <path class="cls-5" d="m18.99,39.91l.62-.14c.23-.05.39-.24.36-.4l-.62-7.24c-.04-.17-.26-.26-.5-.2l-1.62.38c-.23.05-.39.24-.36.4l1.63,7.01c.04.17.26.26.5.2Z"/>
    </g>
    <g>
      <path class="cls-5" d="m12.41,47l-.62-.14c-.23-.05-.39-.24-.36-.4l.62-7.24c.04-.17.26-.26.5-.2l1.62.38c.23.05.39.24.36.4l-1.63,7.01c-.04.17-.26.26-.5.2Z"/>
      <path class="cls-5" d="m14.05,39.91l-.62-.14c-.23-.05-.39-.24-.36-.4l.62-7.24c.04-.17.26-.26.5-.2l1.62.38c.23.05.39.24.36.4l-1.63,7.01c-.04.17-.26.26-.5.2Z"/>
    </g>
    <rect class="cls-5" x="13.95" y="31.7" width="5.13" height="3.92" rx="1.73" ry="1.73"/>
  </g>
  <g>
    <rect class="cls-4" x="10.81" y="22.43" width="1.57" height="7.79" rx=".69" ry=".69"/>
    <rect class="cls-4" x="11.8" y="29.29" width="1.37" height="6.49" rx=".61" ry=".61" transform="translate(-8.72 4.88) rotate(-16.49)"/>
    <path class="cls-4" d="m13.19,35.59l.53-.2c.16-.06.34.04.41.22l.83,1.23s.1.31-.06.37l-1.42.53c-.16.06-.28-.24-.28-.24l-.18-1.48c-.07-.18,0-.38.16-.43Z"/>
    <path class="cls-7" d="m11.32,22.43h1.15c.28,0,.51.23.51.51v2.52c0,.28-.23.51-.51.51h-1.75c-.28,0-.51-.23-.51-.51l.61-2.52c0-.28.23-.51.51-.51Z"/>
  </g>
  <g>
    <rect class="cls-4" x="20.59" y="22.43" width="1.57" height="7.79" rx=".69" ry=".69"/>
    <path class="cls-7" d="m21.64,22.43h-1.15c-.28,0-.51.23-.51.51v2.52c0,.28.23.51.51.51h1.75c.28,0,.51-.23.51-.51l-.61-2.52c0-.28-.23-.51-.51-.51Z"/>
  </g>
  <path class="cls-7" d="m18.49,31.78h-4.05c-.21,0-.38-.21-.38-.47l-1.33-8.41c0-.26.17-.47.38-.47h6.71c.21,0,.38.21.38.47l-1.33,8.41c0,.26-.17.47-.38.47Z"/>
  <path class="cls-4" d="m16.46,23.42c-.86,0-1.61-.94-1.61-.94,0-.03.07-.05.16-.05h2.89c.09,0,.16.02.16.05,0,0-.74.94-1.61.94Z"/>
  <g>
    <path class="cls-3" d="m9.72,47.68c0-.97.78-1.75,1.75-1.75s1.75.78,1.75,1.75-3.5.97-3.5,0Z"/>
    <rect class="cls-3" x="10.99" y="44.98" width="2.23" height="2.57" rx=".99" ry=".99" transform="translate(-3.78 1.16) rotate(-4.74)"/>
    <rect class="cls-3" x="10.38" y="44.62" width="1.03" height="1.47" rx=".45" ry=".45" transform="translate(-3.71 1.06) rotate(-4.74)"/>
    <rect class="cls-3" x="12.58" y="44.44" width="1.03" height="1.47" rx=".45" ry=".45"/>
    <rect class="cls-3" x="11.31" y="44.17" width="1.03" height="2.1" rx=".45" ry=".45" transform="translate(-1.88 .53) rotate(-2.4)"/>
  </g>
  <g>
    <path class="cls-3" d="m23.32,48.04c0-.97-.78-1.75-1.75-1.75s-1.75.78-1.75,1.75,3.5.97,3.5,0Z"/>
    <rect class="cls-3" x="19.81" y="45.34" width="2.23" height="2.57" rx=".99" ry=".99" transform="translate(37.93 94.81) rotate(-175.26)"/>
    <rect class="cls-3" x="21.63" y="44.98" width="1.03" height="1.47" rx=".45" ry=".45" transform="translate(40.42 93.1) rotate(-175.26)"/>
    <rect class="cls-3" x="19.43" y="44.8" width="1.03" height="1.47" rx=".45" ry=".45" transform="translate(39.88 91.07) rotate(180)"/>
    <rect class="cls-3" x="20.7" y="44.53" width="1.03" height="2.1" rx=".45" ry=".45" transform="translate(40.5 92) rotate(-177.6)"/>
  </g>
</svg>